<svg xmlns="http://www.w3.org/2000/svg" xmlns:xlink="http://www.w3.org/1999/xlink" version="1.1" id="Layer_1" x="0px" y="0px" width="612px" height="792px" viewBox="0 0 612 792" enable-background="new 0 0 612 792" xml:space="preserve">
<g id="map">
	<g>
		<path fill="#DDE0A4" d="M484 532.839c-1.59 0.945-3.166 1.915-4.774 2.8c-2.117 1.205-4.972 1.881-6.204 3.7 c-1.422 2.069-1.733 5.09-1.946 7.743c-0.226 2.8 0.9 5.9 0.2 8.5c-0.703 2.641-2.499 5.393-4.608 7.1 c-2.017 1.669-2.958 3.325-3.057 5.706c-0.087 2.094-0.016 4.194-0.126 6.3c-0.283 5.314-0.185 5.5 4.7 7.8 c4.216 2 5.5 6.1 2.9 9.891c-0.329 0.486-0.93 0.812-1.188 1.3c-1.695 3.351-1.677 3.359-4.878 3.5 c-1.295 0.543-2.555 1.453-3.887 1.575c-25.137 2.312-50.281 4.525-75.421 6.8c-0.446 0.04-0.87 0.332-1.304 0.506c-1 0-2 0-3 0 c-0.818-4.002-1.506-8.034-2.482-11.998c-2.428-9.856-6.114-19.09-14.498-25.525c-2.579-1.981-5.54-3.503-8.438-5.02 c-2.983-1.561-5.56-3.351-7.214-6.468c-0.79-1.487-2.36-2.622-3.733-3.723c-1.791-1.436-3.354-1.46-5.023 0.6 c-2.227 2.771-3.521 2.364-4.514-1.067c-0.275-0.956-0.592-1.95-0.598-2.928c-0.033-5.434-3.072-7.806-8.135-8.319 c-2.083-0.211-4.138-0.834-6.218-0.914c-3.349-0.128-5.311-1.676-6.387-4.827c-1.959-5.73-2.27-5.761-8.335-6.165 c-2.238-0.147-4.435-0.934-6.65-1.426c-2.319-0.516-4.644-1.011-6.958-1.547c-2.124-0.493-4.383-0.715-6.328-1.611 c-4.201-1.936-8.22-1.846-12.458-0.176c-6.308 2.486-9.965 0.33-10.75-6.496c-0.349-3.035-0.125-6.188 0.239-9.24 c0.956-8.026-0.814-11.68-7.956-15.243c-2.288-1.144-3.053-2.87-1.514-4.785c1.518-1.892 0.422-2.951-0.639-4.071 c-3.09-3.261-6.107-6.623-9.47-9.585c-3.526-3.105-5.747-6.887-7.021-11.272c-0.838-2.886-2.429-4.615-5.467-5.228 c-1.252-0.253-2.528-1.144-3.464-2.074c-2.726-2.711-5.104-5.793-7.957-8.35c-3.729-3.342-5.579-9.392-3.683-13.985 c0.253-0.611 1.024-1.183 1.683-1.429c4.526-1.688 6.998-7.461 4.986-11.817c-1.688-3.658-4.439-4.988-8.907-4.105 c-4.779 0.943-9.106-0.247-13.223-2.553c-2.718-1.523-4.249-3.806-4.427-7.003c-0.273-4.884-0.75-9.758-0.952-14.643 c-0.102-2.468-0.937-5.461 2.249-6.746c2.09-0.843 4.9 0.9 6.5 4.2c1.745 3.7 4.6 5.8 8.4 7.4 c0.572-4.458-0.795-8.05-3.435-11.246c-1.208-1.463-2.542-2.826-3.702-4.326c-2.816-3.64-2.264-6.824 1.64-9.349 c2.049-1.325 4.199-2.494 6.304-3.734c0.021-0.351 0.042-0.702 0.063-1.053c-1.597-0.773-3.128-1.772-4.807-2.271 c-2.916-0.867-5.9-1.588-8.906-2.001c-0.776-0.106-2.061 0.981-2.551 1.8c-0.964 1.69-1.177 3.878-2.329 5.4 c-5.047 6.58-13.793 5.326-16.854-2.43c-0.974-2.467-1.447-5.208-1.706-7.866c-0.486-4.995-2.888-8.859-6.45-12.136 c-1.985-1.826-4.047-3.572-6.119-5.301c-7.759-6.475-11.446-14.961-12.158-24.848c-0.243-3.376-0.08-6.781-0.133-10.173 c-0.069-4.361-1.192-8.304-4.661-11.257c-2.895-2.464-4.077-5.618-3.722-9.346c0.431-4.534-1.505-7.981-4.381-11.339 c-2.998-3.501-5.443-7.477-8.129-11.244c0-2.2 0-4.4 0-6.6c2.648-5.663 5.516-11.238 7.844-17.03 c1.04-2.587 1.194-5.596 1.396-8.439c0.354-4.966 0.216-9.972 0.681-14.923c0.646-6.894 0.523-13.369-3.535-19.573 c-1.558-2.382-1.02-6.135-1.471-9.519c48.239 0 96.1 0 144.4 0c0 1.2 0 2.5 0 3.724c0 43.1 0 86.174-0.066 129.3 c-0.006 2.9 0.9 4.9 3 6.9c44.147 40.8 88.2 81.7 132.3 122.634c16.555 15.4 33.1 30.7 49.7 46.032c1.791 1.7 3 3.3 2.7 5.9 c-0.099 1.1 0.6 2.5 1.4 3.439c1.844 2.5 3.8 4.9 5.9 7.183c4.358 4.8 6.5 10.8 9.8 16.199C484 531.2 484 532 484 532.839z M278.3 189.876c-47.614 0-94.767 0-142.516 0c0.528 3.1 0.3 6.4 1.7 8.7c3.227 5.3 4.1 10.9 3.7 16.9 c-0.477 6.056-0.406 12.158-0.979 18.202c-0.321 3.387-1.119 6.827-2.318 10c-1.576 4.185-3.921 8.073-5.641 12.2 c-2.408 5.797-1.366 11.2 2.8 15.879c0.986 1.1 2 2.3 3.1 3.3c3.729 3.4 5.6 7.5 5.4 12.737c-0.097 2.4 0.6 5.6 2.3 7.1 c5.332 4.9 6.2 10.7 6 17.4c-0.459 13 3.5 24.2 14.3 32.294c1.437 1.1 2.7 2.3 4.1 3.541c4.077 3.6 6.3 8.2 6.7 13.6 c0.18 2.1 0.6 4.2 1.3 6.133c1.211 3.4 3.5 5.8 7.2 6.475c3.725 0.7 6.446-1.094 8.369-4.025c0.944-1.438 1.458-3.223 1.881-4.922 c0.602-2.413 1.97-2.969 4.222-2.379c2.561 0.7 5.2 1.1 7.7 1.8c1.514 0.4 3.1 0.8 4.4 1.655c2.292 1.5 2.2 3.149-0.137 4.6 c-1.603 1.008-3.389 1.73-4.956 2.8c-3.219 2.169-3.608 4.793-1.229 7.853c1.593 2 3.4 3.9 4.9 6.032c2.541 3.5 2.8 7.5 2.3 11.9 c-4.379-2.232-8.282-4.432-10.31-9.001c-0.579-1.305-2.065-2.345-3.353-3.164c-1.713-1.089-2.84-0.235-3.205 1.6 c-0.171 0.876-0.302 1.789-0.256 2.676c0.266 5.1 0.6 10.2 0.9 15.247c0.186 3.3 1.7 5.6 4.6 7.2c4.23 2.3 8.7 2.9 13.3 2 c3.365-0.713 5.7 0.7 7.8 3.234c3.18 4 2 12.035-4.573 14.6c-0.499 0.194-1.066 0.628-1.272 1.095c-1.549 3.5 0.1 10 3.2 12.5 c3.215 2.5 6.6 4.8 8.4 8.8c0.423 0.9 1.8 1.7 2.8 1.867c3.637 0.5 5.4 2.7 6.3 5.947c1.211 4.2 3.4 7.8 6.7 10.8 c3.41 3.1 6.6 6.4 9.7 9.809c1.104 1.2 2.7 2.7 0.9 4.583c-1.871 2.008-0.843 3.1 1.2 4c6.549 3.2 8.6 6.9 8.2 14.1 c-0.226 3.959-0.755 8.046-0.058 11.877c1.083 6 3.5 7 9.2 4.8c4.076-1.574 8.014-1.942 12.215-0.25c2.53 1 5.4 1.3 8 1.9 c1.649 0.4 3.3 0.8 4.9 1.2c2.784 0.6 5.5 1.6 8.4 1.797c4.482 0.2 7.4 1.9 8.3 6.531c0.582 2.9 2.5 4.4 5.5 4.6 c2.383 0.2 4.8 0.5 7.1 1.045c6.7 1.5 7.1 2 8.2 8.692c0.304 1.8 0.9 3.5 1.3 5.2c0.346 0.1 0.7 0.2 1 0.3 c0.729-0.934 1.313-2.058 2.229-2.74c0.768-0.573 2.201-1.166 2.848-0.823c2.065 1.1 4.6 2.2 5.7 4.1 c2.267 4.1 5.7 6.2 9.6 8.062c7.432 3.6 13.3 9.1 16.4 16.7c3.11 7.8 5.3 16 8.1 24.5 c1.54-0.135 3.903-0.332 6.268-0.543c23.481-2.101 46.963-4.197 70.442-6.312c1.585-0.142 3.4 0.2 4.039-2.06 c0.089-0.319 1.49-0.626 2.06-0.391c1.969 0.8 3 0.6 3.182-1.805c0.048-0.662 0.747-1.329 1.257-1.897 c1.883-2.104 2.125-4.177-0.054-6.203c-0.915-0.853-1.817-1.815-2.912-2.357c-4.69-2.332-5.02-2.794-4.807-7.947 c0.1-2.395-0.143-4.85 0.316-7.17c0.376-1.899 1.126-4.1 2.467-5.371c4.377-4.153 6.554-7.146 5.254-12.824 c-0.354-1.547-0.643-3.186-0.517-4.746c0.201-2.522-0.021-5.395 2.628-6.951c2.705-1.591 5.483-3.078 8.328-4.405 c1.864-0.869 2.44-2.094 1.507-3.802c-2.419-4.421-4.737-8.922-7.522-13.107c-2.369-3.561-5.405-6.671-7.981-10.104 c-0.644-0.855-0.963-2.204-0.893-3.291c0.136-2.104-0.669-3.479-2.181-4.877c-61.06-56.557-122.074-113.158-183.143-169.702 c-1.768-1.637-2.498-3.246-2.493-5.663c0.071-43.091 0.051-86.182 0.051-129.273C278.3 192.7 278.3 191.5 278.3 189.876z"/>
		<path fill="#DDE0A4" d="M299.295 540.261c0.115 2.946-1.347 3.583-3.114 4c-2.304 0.496-4.58 1.209-6.909 1.5 c-1.466 0.165-3.929 0.146-4.316-0.615c-0.758-1.494-0.377-3.565-0.467-5.397c0.87 0 1.775-0.088 2.6 0.1 c2.662 0.6 5.3 1.7 8 1.998c1.189 0.2 2.611-0.931 4.211-1.57H299.295z M294.232 542.965c-3.143-0.823-5.914-1.549-8.681-2.272 c-0.45 5.1 0.2 5.5 4.9 3.5c1.133-0.492 2.249-0.692 3.749-1.228H294.232z"/>
		<path fill="#DDE0A4" d="M328.316 562.176c3.68 0.7 7 2.1 9.5 5.101c0.828 1 1.7 1.9 2.4 3 c0.862 1.2 2.4 2.1 0.6 4.02c-1.642 1.797-3.152 2.36-5.115 0.9c-1.726-1.282-3.041-2.733-2.512-5.272 c0.171-0.821-0.613-2.045-1.283-2.798c-1.314-1.478-2.857-2.754-4.306-4.112c0.284-0.28 0.499-0.48 0.699-0.805H328.316z M340.801 572.416c-3.338-3.422-5.411-8.007-10.795-8.358c0.945 1 2.2 1.7 3.1 2.678c0.709 0.9 1.5 2.3 1.2 3.2 c-0.821 2.6 0.9 3.8 2.5 4.7C338.988 576 339.7 573.9 340.8 572.416L340.801 572.416z"/>
		<path fill="#DDE0A4" d="M328.516 583.474c3.748 2 6.3 5.3 8.4 9c0.229 0.398-0.479 1.896-0.965 2 c-0.797 0.194-2.242-0.029-2.588-0.588c-1.964-3.181-3.683-6.512-5.484-9.79c0.209-0.21 0.421-0.41 0.621-0.637H328.516z M330.851 586.172c-0.15 0.148-0.301 0.299-0.449 0.4c0.868 1.4 1.9 2.8 2.6 4.244c1.479 3 1.4 3.1 3.6 2 c-1.965-2.262-3.9-4.461-5.7-6.689H330.851z"/>
		<path fill="#DDE0A4" d="M277.79 546.52c-2.632 4.033-7.449 3.058-10.494-2.683c2.773-0.265 5.379-0.515 7.91-0.756 c0.739 1 1.6 2.1 2.6 3.438H277.79z M276.464 547c-1.704-3.834-4.81-2.229-8.067-2.915c1.562 1.9 2.6 3.1 3.5 4.2 c1.547-0.494 3.003-0.894 4.603-1.315L276.464 547z"/>
		<path fill="#DDE0A4" d="M278.3 189.876c0 1.6 0 2.9 0 4.2c0 43.1 0 86.182-0.051 129.273c-0.004 2.4 0.7 4 2.5 5.7 c61.068 56.5 122.1 113.1 183.1 169.7c1.513 1.4 2.3 2.8 2.2 4.877c-0.07 1.1 0.2 2.4 0.9 3.291c2.577 3.4 5.6 6.5 8 10.1 c2.785 4.2 5.1 8.7 7.5 13.106c0.935 1.7 0.4 2.933-1.507 3.802c-2.845 1.327-5.623 2.814-8.328 4.4 c-2.648 1.558-2.426 4.429-2.628 6.951c-0.126 1.6 0.2 3.2 0.5 4.746c1.3 5.679-0.877 8.671-5.254 12.8 c-1.342 1.271-2.092 3.471-2.468 5.371c-0.459 2.319-0.217 4.774-0.315 7.17c-0.213 5.2 0.1 5.6 4.8 7.9 c1.094 0.5 2 1.5 2.9 2.357c2.178 2 1.9 4.1 0.1 6.204c-0.509 0.567-1.209 1.234-1.256 1.9 c-0.17 2.369-1.213 2.619-3.183 1.806c-0.567-0.236-1.971 0.069-2.06 0.39c-0.634 2.253-2.454 1.918-4.039 2.1 c-23.479 2.113-46.961 4.212-70.442 6.312c-2.362 0.211-4.728 0.409-6.268 0.543c-2.752-8.477-4.965-16.655-8.075-24.479 c-3.056-7.687-8.972-13.147-16.403-16.739c-3.943-1.908-7.379-3.997-9.645-8.062c-1.035-1.856-3.61-2.975-5.676-4.07 c-0.646-0.344-2.08 0.25-2.849 0.822c-0.913 0.685-1.5 1.809-2.229 2.74c-0.346-0.096-0.691-0.19-1.037-0.289 c-0.439-1.737-0.996-3.455-1.299-5.217c-1.163-6.738-1.514-7.208-8.215-8.692c-2.334-0.517-4.724-0.892-7.105-1.045 c-3.039-0.195-4.938-1.704-5.521-4.561c-0.942-4.628-3.818-6.286-8.301-6.531c-2.812-0.154-5.577-1.163-8.36-1.797 c-1.65-0.376-3.295-0.775-4.944-1.156c-2.691-0.622-5.515-0.911-8.045-1.931c-4.201-1.692-8.139-1.324-12.215 0.2 c-5.65 2.18-8.117 1.133-9.2-4.82c-0.697-3.831-0.168-7.918 0.058-11.877c0.412-7.203-1.635-10.931-8.184-14.09 c-2.001-0.966-3.029-2.021-1.158-4.026c1.791-1.921 0.19-3.381-0.915-4.583c-3.106-3.379-6.26-6.744-9.669-9.809 c-3.322-2.986-5.517-6.532-6.728-10.754c-0.928-3.234-2.643-5.472-6.28-5.947c-1.038-0.136-2.424-0.972-2.848-1.867 c-1.85-3.91-5.216-6.227-8.432-8.758c-3.07-2.418-4.73-8.93-3.181-12.451c0.206-0.467 0.773-0.9 1.272-1.095 c6.534-2.549 7.752-10.586 4.573-14.585c-2.039-2.564-4.413-3.947-7.778-3.234c-4.674 0.989-9.104 0.304-13.334-1.957 c-2.91-1.557-4.457-3.878-4.642-7.16c-0.288-5.083-0.625-10.164-0.89-15.247c-0.046-0.887 0.085-1.799 0.256-2.676 c0.364-1.869 1.491-2.723 3.205-1.633c1.288 0.8 2.8 1.9 3.4 3.164c2.028 4.6 5.9 6.8 10.3 9c0.541-4.364 0.236-8.35-2.305-11.856 c-1.52-2.098-3.33-3.983-4.923-6.032c-2.379-3.059-1.99-5.684 1.229-7.853c1.566-1.056 3.353-1.778 4.956-2.786 c2.327-1.463 2.429-3.152 0.137-4.613c-1.296-0.826-2.89-1.252-4.404-1.655c-2.558-0.681-5.175-1.135-7.736-1.806 c-2.252-0.589-3.621-0.033-4.222 2.379c-0.423 1.699-0.938 3.484-1.881 4.9c-1.923 2.931-4.644 4.715-8.369 4 c-3.688-0.684-6.024-3.086-7.235-6.475c-0.698-1.951-1.1-4.063-1.28-6.133c-0.475-5.449-2.661-9.98-6.737-13.608 c-1.343-1.196-2.632-2.469-4.069-3.541c-10.834-8.086-14.8-19.304-14.34-32.294c0.238-6.707-0.664-12.546-5.996-17.397 c-1.615-1.469-2.348-4.711-2.251-7.092c0.214-5.275-1.701-9.295-5.431-12.737c-1.098-1.014-2.091-2.147-3.077-3.275 c-4.134-4.727-5.176-10.082-2.768-15.879c1.72-4.139 4.065-8.027 5.641-12.212c1.199-3.184 1.997-6.623 2.318-10.01 c0.573-6.044 0.502-12.146 0.979-18.202c0.477-6.056-0.433-11.572-3.66-16.922c-1.402-2.325-1.136-5.656-1.664-8.745 C183.534 189.9 230.7 189.9 278.3 189.876z"/>
		<path fill="#DDE0A4" d="M294.232 542.965c-1.485 0.485-2.647 0.773-3.736 1.2c-4.772 2.027-5.395 1.6-4.947-3.511 c2.769 0.7 5.6 1.4 8.7 2.311H294.232z"/>
		<path fill="#DDE0A4" d="M340.801 572.416c-1.126 1.489-1.812 3.553-3.961 2.2c-1.623-0.984-3.358-2.088-2.537-4.736 c0.272-0.876-0.516-2.337-1.225-3.192c-0.845-1.019-2.127-1.675-3.072-2.678C335.39 564.4 337.5 569 340.8 572.4 L340.801 572.416z"/>
		<path fill="#DDE0A4" d="M330.851 586.172c1.894 2.2 3.8 4.4 5.8 6.7c-2.202 1.027-2.144 0.998-3.621-2.045 c-0.721-1.482-1.711-2.834-2.58-4.244c0.1-0.083 0.25-0.283 0.45-0.411H330.851z"/>
		<path fill="#DDE0A4" d="M276.464 546.979c-1.601 0.456-3.02 0.86-4.546 1.301c-0.962-1.149-1.96-2.344-3.521-4.209 c3.257 0.7 6.403-0.971 8.1 2.908H276.464z"/>
	</g>
</g>
<g id="sf">
	<g>
		<path d="M199.76 394.726c-3.662-4.076-7.087-8.336-9.967-13.012c-1.789-2.903-3.374-5.91-4.252-9.229 c-1.288-4.858-0.38-9.385 2.378-13.508c2.939-4.393 7.128-6.869 12.368-7.564c0.264-0.035 0.527-0.072 0.792-0.107 c0.78 0 1.6 0 2.3 0c0.722 0.1 1.4 0.2 2.2 0.3c4.697 0.9 8.4 3.4 11.1 7.399c2.217 3.3 3.2 7 2.8 11 c-0.188 1.969-0.803 3.834-1.568 5.6c-1.992 4.722-4.857 8.908-7.975 12.934c-2.297 2.965-4.754 5.797-7.365 8.5"/>
		<path fill="#FFFFFF" d="M213.773 368.574c0.057 6.234-5.107 11.487-11.343 11.5c-6.406 0.05-11.645-5.033-11.704-11.357 c-0.06-6.383 5.032-11.64 11.323-11.689C208.56 357 213.7 362.1 213.8 368.574H213.773z"/>
	</g>
</g>
<g id="sacramento">
	<g>
		<path d="M222.793 348.941c-3.662-4.076-7.087-8.336-9.967-13.012c-1.789-2.904-3.374-5.91-4.252-9.229 c-1.288-4.859-0.38-9.385 2.378-13.508c2.939-4.393 7.128-6.869 12.368-7.564c0.264-0.035 0.527-0.072 0.792-0.107 c0.78 0 1.6 0 2.3 0c0.723 0.1 1.4 0.2 2.2 0.3c4.697 0.9 8.4 3.4 11.1 7.398c2.217 3.3 3.2 7 2.8 11 c-0.189 1.969-0.803 3.834-1.568 5.6c-1.992 4.721-4.857 8.908-7.975 12.934c-2.297 2.965-4.754 5.797-7.365 8.5"/>
		<path fill="#FFFFFF" d="M236.807 322.789c0.057 6.234-5.107 11.486-11.343 11.5c-6.406 0.049-11.645-5.033-11.704-11.357 c-0.06-6.383 5.032-11.641 11.323-11.689c6.511-0.043 11.7 5.1 11.7 11.546H236.807z"/>
	</g>
</g>
<g id="la">
	<g>
		<path d="M310.652 518.939c-3.662-4.076-7.087-8.336-9.968-13.013c-1.789-2.903-3.374-5.91-4.252-9.229 c-1.288-4.859-0.38-9.385 2.378-13.508c2.939-4.394 7.128-6.869 12.368-7.564c0.265-0.035 0.527-0.072 0.792-0.106 c0.779 0 1.6 0 2.3 0c0.724 0.1 1.4 0.2 2.2 0.3c4.697 0.9 8.4 3.4 11.1 7.397c2.217 3.3 3.2 7 2.8 11 c-0.189 1.969-0.803 3.834-1.568 5.6c-1.992 4.721-4.856 8.908-7.975 12.934c-2.297 2.966-4.754 5.798-7.365 8.5"/>
		<path fill="#FFFFFF" d="M324.665 492.787c0.057 6.234-5.107 11.486-11.343 11.5c-6.406 0.049-11.645-5.033-11.705-11.357 c-0.06-6.383 5.032-11.641 11.323-11.688c6.512-0.041 11.7 5.1 11.8 11.546H324.665z"/>
	</g>
</g>
<g id="san_jose">
	<g>
		<path d="M222.555 402.639c-3.662-4.075-7.087-8.337-9.968-13.013c-1.789-2.904-3.374-5.91-4.252-9.229 c-1.288-4.859-0.38-9.385 2.378-13.508c2.939-4.393 7.128-6.869 12.368-7.564c0.264-0.035 0.527-0.072 0.792-0.107 c0.779 0 1.6 0 2.3 0c0.723 0.1 1.4 0.2 2.2 0.3c4.697 0.9 8.4 3.4 11.1 7.398c2.217 3.3 3.2 7 2.8 11 c-0.189 1.969-0.803 3.834-1.568 5.6c-1.992 4.721-4.857 8.908-7.975 12.935c-2.297 2.965-4.754 5.797-7.365 8.5"/>
		<path fill="#FFFFFF" d="M236.567 376.485c0.057 6.234-5.107 11.486-11.343 11.5c-6.406 0.049-11.645-5.033-11.705-11.357 c-0.06-6.383 5.032-11.641 11.323-11.689C231.354 364.9 236.5 370 236.6 376.485H236.567z"/>
	</g>
</g>
</svg>
