<?xml version="1.0" encoding="utf-8"?>
<!-- Generator: Adobe Illustrator 16.0.0, SVG Export Plug-In . SVG Version: 6.00 Build 0)  -->
<!DOCTYPE svg PUBLIC "-//W3C//DTD SVG 1.1//EN" "http://www.w3.org/Graphics/SVG/1.1/DTD/svg11.dtd">
<svg version="1.1" xmlns="http://www.w3.org/2000/svg" xmlns:xlink="http://www.w3.org/1999/xlink" x="0px" y="0px"
	 width="182.769px" height="168.6px" viewBox="0 0 182.769 168.6" enable-background="new 0 0 182.769 168.6" xml:space="preserve">
<g id="Layer_1">
	<polygon fill="#C93539" stroke="#000000" stroke-width="2" points="130.279,82.895 147.689,5.798 38.447,5.798 52.338,82.894 
		19.384,82.895 90.662,163.6 163.384,82.895 	"/>
	<g>
		<path stroke="#000000" stroke-miterlimit="10" d="M73.762,104.535c1.088,0,1.97-1.914,1.97-4.276c0-2.359-0.882-4.274-1.97-4.274
			c-1.087,0-1.971,1.915-1.971,4.274C71.791,102.622,72.675,104.535,73.762,104.535"/>
		<ellipse stroke="#000000" stroke-width="2" cx="73.762" cy="100.26" rx="1.97" ry="4.275"/>
		<path stroke="#000000" stroke-miterlimit="10" d="M109.036,104.535c1.088,0,1.97-1.914,1.97-4.276c0-2.359-0.882-4.274-1.97-4.274
			c-1.089,0-1.971,1.915-1.971,4.274C107.065,102.622,107.947,104.535,109.036,104.535"/>
		<ellipse stroke="#000000" stroke-width="2" cx="109.036" cy="100.26" rx="1.97" ry="4.275"/>
		<path fill="none" stroke="#000000" stroke-width="2" d="M83.457,112.646c2.743,5.926,11.731,6.259,15.856,0"/>
	</g>
</g>
<g id="Layer_2">
</g>
</svg>
