<!DOCTYPE svg PUBLIC "-//W3C//DTD SVG 1.1//EN" "http://www.w3.org/Graphics/SVG/1.1/DTD/svg11.dtd">
<svg version="1.1" id="Layer_1" xmlns="http://www.w3.org/2000/svg" xmlns:xlink="http://www.w3.org/1999/xlink" x="0px" y="0px"
	 width="300px" height="300px" viewBox="0 0 300 300" enable-background="new 0 0 300 300" xml:space="preserve">
<g>
	<defs>
		<rect id="SVGID_1_" x="24.821" y="21.31" width="262" height="262"/>
	</defs>
	<clipPath id="SVGID_2_">
		<use xlink:href="#SVGID_1_"  overflow="visible"/>
	</clipPath>
	<g clip-path="url(#SVGID_2_)">
		<defs>
			<rect id="SVGID_3_" x="24.821" y="21.31" width="262" height="262"/>
		</defs>
		<clipPath id="SVGID_4_">
			<use xlink:href="#SVGID_3_"  overflow="visible"/>
		</clipPath>
		<path clip-path="url(#SVGID_4_)" fill="#B7A573" d="M155.821,278.311c-69.588,0-126-56.412-126-126c0-69.588,56.412-126,126-126
			s126,56.412,126,126C281.821,221.898,225.409,278.311,155.821,278.311"/>
		<path clip-path="url(#SVGID_4_)" fill="none" stroke="#65522B" stroke-width="2.5" d="M155.821,280.811
			c-70.856,0-128.5-57.645-128.5-128.5c0-70.856,57.644-128.5,128.5-128.5c70.854,0,128.5,57.645,128.5,128.5
			C284.321,223.166,226.675,280.811,155.821,280.811z"/>
		<path clip-path="url(#SVGID_4_)" fill="none" stroke="#65522B" stroke-width="0.835" d="M155.821,274.146
			c-67.18,0-121.836-54.656-121.836-121.838c0-67.18,54.656-121.834,121.836-121.834s121.834,54.654,121.834,121.834
			C277.655,219.49,223.001,274.146,155.821,274.146z"/>
		<g opacity="0.5" clip-path="url(#SVGID_4_)">
			<g>
				<defs>
					<rect id="SVGID_5_" x="-20.144" y="-1.487" width="352.084" height="260.622"/>
				</defs>
				<clipPath id="SVGID_6_">
					<use xlink:href="#SVGID_5_"  overflow="visible"/>
				</clipPath>
				<circle clip-path="url(#SVGID_6_)" fill="none" stroke="#D7CBAE" stroke-width="1.35" cx="78.662" cy="72.673" r="6.701"/>
				
					<line clip-path="url(#SVGID_6_)" fill="none" stroke="#D7CBAE" stroke-width="1.35" x1="80.012" y1="98.494" x2="80.012" y2="79.068"/>
				
					<line clip-path="url(#SVGID_6_)" fill="none" stroke="#D7CBAE" stroke-width="1.35" x1="122.537" y1="97.845" x2="78.663" y2="97.845"/>
				
					<line clip-path="url(#SVGID_6_)" fill="none" stroke="#D7CBAE" stroke-width="1.35" x1="218.243" y1="237.973" x2="218.243" y2="221.869"/>
				
					<line clip-path="url(#SVGID_6_)" fill="none" stroke="#D7CBAE" stroke-width="1.35" x1="45.856" y1="199.139" x2="265.94" y2="199.139"/>
				
					<line clip-path="url(#SVGID_6_)" fill="none" stroke="#D7CBAE" stroke-width="1.35" x1="219.563" y1="220.52" x2="159.952" y2="219.168"/>
				
					<line clip-path="url(#SVGID_6_)" fill="none" stroke="#D7CBAE" stroke-width="1.35" x1="161.271" y1="219.844" x2="161.271" y2="197.789"/>
				<circle clip-path="url(#SVGID_6_)" fill="none" stroke="#D7CBAE" stroke-width="1.35" cx="218.243" cy="243.729" r="6.702"/>
				
					<line clip-path="url(#SVGID_6_)" fill="none" stroke="#D7CBAE" stroke-width="1.35" x1="274.581" y1="138.181" x2="176.481" y2="138.181"/>
				
					<line clip-path="url(#SVGID_6_)" fill="none" stroke="#D7CBAE" stroke-width="1.35" x1="190.413" y1="79.068" x2="121.776" y2="79.068"/>
				
					<line clip-path="url(#SVGID_6_)" fill="none" stroke="#D7CBAE" stroke-width="1.35" x1="175.13" y1="138.181" x2="175.13" y2="80.726"/>
				<circle clip-path="url(#SVGID_6_)" fill="none" stroke="#D7CBAE" stroke-width="1.35" cx="195.413" cy="77.718" r="6.701"/>
				
					<line clip-path="url(#SVGID_6_)" fill="none" stroke="#D7CBAE" stroke-width="1.35" x1="122.187" y1="241.031" x2="122.187" y2="36.515"/>
				<circle clip-path="url(#SVGID_6_)" fill="none" stroke="#D7CBAE" stroke-width="1.35" cx="122.537" cy="249.083" r="6.702"/>
			</g>
		</g>
		<path clip-path="url(#SVGID_4_)" fill="none" stroke="#FFFFFF" stroke-width="1.372" d="M171.966,150.576
			c-2.789,2.797-6.156,4.194-10.107,4.194c-3.949,0-7.34-1.396-10.172-4.194c-2.834-2.795-4.25-6.211-4.25-10.254
			c0-3.957,1.416-7.334,4.25-10.129c2.832-2.793,6.223-4.193,10.172-4.193c3.951,0,7.318,1.4,10.107,4.193
			c2.793,2.795,4.188,6.172,4.188,10.129C176.153,144.365,174.759,147.781,171.966,150.576z M162.437,120.453
			c-5.47,0-10.128,1.979-13.974,5.934l-7.051-5.934h-7.052v53.282h4.744v17.674c-2.05,1.033-3.076,2.707-3.076,5.031
			c0,1.549,0.561,2.881,1.685,4c1.124,1.117,2.464,1.676,4.02,1.676c1.554,0,2.895-0.559,4.018-1.676
			c1.124-1.119,1.687-2.451,1.687-4c0-2.838-1.368-4.643-4.1-5.418v-17.287h4.869v-19.609c3.874,3.869,8.568,5.805,14.08,5.805
			c5.426,0,10.076-1.914,13.953-5.74c3.871-3.827,5.812-8.493,5.812-13.999c0-5.418-1.926-10.062-5.771-13.932
			C172.435,122.388,167.821,120.453,162.437,120.453z M212.239,135.769c3.717-2.924,7.969-4.385,12.758-4.385
			c7.092,0,12.305,1.16,15.637,3.48l3.721-9.545c-4.531-3.787-10.986-5.676-19.357-5.676c-8.975,0-16.625,3.16-22.949,9.479
			c-6.324,6.322-9.484,13.957-9.484,22.901c0,8.861,3.309,16.512,9.934,22.963c6.621,6.451,14.121,9.676,22.5,9.676
			c5.895,0,11.236-1.549,16.023-4.643c1.023,0.602,2.137,0.902,3.334,0.902c1.795,0,3.311-0.621,4.551-1.871
			c1.234-1.244,1.859-2.773,1.859-4.578c0-1.807-0.625-3.355-1.859-4.646c-1.24-1.291-2.756-1.934-4.551-1.934
			c-1.797,0-3.334,0.643-4.615,1.934c-1.283,1.291-1.924,2.84-1.924,4.646c0,0.859,0.17,1.719,0.512,2.58
			c-3.588,2.062-8.035,3.096-13.33,3.096c-7.098,0-13.422-2.816-18.975-8.451c-5.557-5.631-8.332-12.062-8.332-19.287h51.406v-5.418
			h-44.229C206.063,142.433,208.522,138.693,212.239,135.769z M108.811,167.893c-1.794,0-3.334,0.643-4.616,1.934
			s-1.922,2.84-1.922,4.646c0,0.859,0.17,1.719,0.512,2.58c-3.588,2.062-8.034,3.096-13.332,3.096
			c-7.178,0-13.523-2.838-19.038-8.514c-5.512-5.678-8.266-12.084-8.266-19.225l6.536-0.129c0-5.76,2.03-10.684,6.09-14.772
			c4.058-4.084,8.952-6.125,14.678-6.125c7.093,0,12.309,1.16,15.641,3.48l3.718-9.545c-4.53-3.787-10.982-5.676-19.358-5.676
			c-8.974,0-16.622,3.16-22.945,9.479c-6.326,6.322-9.488,13.957-9.488,22.901c0,8.861,3.312,16.512,9.936,22.963
			c6.622,6.451,14.122,9.676,22.498,9.676c5.898,0,11.238-1.549,16.024-4.643c1.026,0.602,2.136,0.902,3.334,0.902
			c1.794,0,3.31-0.621,4.55-1.871c1.238-1.244,1.86-2.773,1.86-4.578c0-1.807-0.622-3.355-1.86-4.646
			C112.12,168.535,110.604,167.893,108.811,167.893z"/>
	</g>
</g>
</svg>
